<?xml version="1.0" encoding="utf-8"?>
<!-- Generator: Adobe Illustrator 17.1.0, SVG Export Plug-In . SVG Version: 6.00 Build 0)  -->
<!DOCTYPE svg PUBLIC "-//W3C//DTD SVG 1.1//EN" "http://www.w3.org/Graphics/SVG/1.1/DTD/svg11.dtd">
<svg version="1.1" id="Layer_1" xmlns="http://www.w3.org/2000/svg" xmlns:xlink="http://www.w3.org/1999/xlink" x="0px" y="0px"
	 viewBox="0 0 16 16" enable-background="new 0 0 16 16" xml:space="preserve">
<path fill="#4D5860" d="M13.4,5.6h-1.9l-2.3,6.5L6,3H3.5L0,12.9h2.3L3,10.5h3.6l0.7,2.3H9h0.5h1.1l0.5-1.7h2.6l0.5,1.7H16L13.4,5.6z
	 M3.5,8.8c0.7-2.3,1.1-3.7,1.3-4.3c0,0.2,0.1,0.4,0.2,0.7C5,5.5,5.4,6.7,6.1,8.8H3.5z M11.6,9.9c0.5-1.7,0.8-2.7,0.9-3.1
	c0,0.1,0.1,0.3,0.1,0.5c0.1,0.2,0.3,1.1,0.8,2.7H11.6z"/>
</svg>
